# xmcd
#
# Track frame offsets: 
#        150
#        20889
#        46021
#        62078
#        81677
#        96695
#        113827
#        130443
#        147923
#        158536
#        176484
#        202262
#
# Disc length: 2942 seconds
#
# Revision: 0
# Processed by: cddbd v1.5.2PL0 Copyright (c) Steve Scherf et al.
# Submitted via: ExactAudioCopyFreeDBPlugin 1.0
#
DISCID=b40b7c0c
DTITLE=Choo Choo Charlie WiIliams - Harpin' my Life Away
DYEAR=1900
DGENRE=Blues
TTITLE0=Take it Easy
TTITLE1=Baby I Need Your Love
TTITLE2=Jambalayo
TTITLE3=Choo Choo Boogie
TTITLE4=Drinkin' Wine
TTITLE5=My Good Friends Are Gone
TTITLE6=Why Don't You
TTITLE7=My Mojo Don't Help Me
TTITLE8=Treat Her Right
TTITLE9=Since the Day you Went Away
TTITLE10=Nobody Played LIke Stevie Ray
TTITLE11=Slippin' Away
EXTD=
EXTT0=
EXTT1=
EXTT2=
EXTT3=
EXTT4=
EXTT5=
EXTT6=
EXTT7=
EXTT8=
EXTT9=
EXTT10=
EXTT11=
PLAYORDER=
